<svg xmlns="http://www.w3.org/2000/svg" width="566.146" height="150.813" viewBox="0 0 566.146 150.813">
  <g id="Group_60" data-name="Group 60" transform="translate(-3093.06 -2622.294)">
    <g id="Group_59" data-name="Group 59">
      <g id="Group_58" data-name="Group 58" transform="translate(-59 -88)">
        <g id="Group_57" data-name="Group 57">
          <g id="Group_26" data-name="Group 26" transform="translate(-8912.5 940.583)">
            <path id="Path_30" data-name="Path 30" d="M45.11,115.52A39.109,39.109,0,0,1,25.935,110.9,33.745,33.745,0,0,1,12.8,98.165,36.3,36.3,0,0,1,8.06,79.51a38.237,38.237,0,0,1,4.485-18.785A32.793,32.793,0,0,1,24.96,47.985a35.515,35.515,0,0,1,18.2-4.615q10.14,0,17.42,4.485a29.229,29.229,0,0,1,11.115,12.35A40.887,40.887,0,0,1,75.53,78.34a5.441,5.441,0,0,1-1.69,4.1,5.938,5.938,0,0,1-4.29,1.625H17.16V73.66h52L63.83,77.3a27.821,27.821,0,0,0-2.6-11.635A18.953,18.953,0,0,0,43.16,54.55,23.665,23.665,0,0,0,30.485,57.8a20.937,20.937,0,0,0-8,8.905,29.085,29.085,0,0,0-2.73,12.8,24.878,24.878,0,0,0,3.25,12.74,23.746,23.746,0,0,0,8.97,8.84,26.11,26.11,0,0,0,13.13,3.25,24.662,24.662,0,0,0,8.255-1.495A25.645,25.645,0,0,0,60.19,99.4a7.371,7.371,0,0,1,4.225-1.5A5.682,5.682,0,0,1,68.38,99.27a6.159,6.159,0,0,1,2.34,4.29,4.611,4.611,0,0,1-2.08,4.03,35.947,35.947,0,0,1-10.985,5.72A39.3,39.3,0,0,1,45.11,115.52Zm140.66-.39a6.445,6.445,0,0,1-6.63-6.63V71.32q0-8.19-4.03-12.155a15.74,15.74,0,0,0-21.645.715,16.862,16.862,0,0,0-4.355,11.96H138.32a29.712,29.712,0,0,1,3.64-14.885A25.932,25.932,0,0,1,152.165,46.88a30.444,30.444,0,0,1,15.015-3.64,26.111,26.111,0,0,1,13.13,3.25,22.148,22.148,0,0,1,8.9,9.555A33.574,33.574,0,0,1,192.4,71.32V108.5a6.556,6.556,0,0,1-1.82,4.745A6.38,6.38,0,0,1,185.77,115.13Zm-86.71,0a6.445,6.445,0,0,1-6.63-6.63V50.65a6.38,6.38,0,0,1,1.885-4.81,6.6,6.6,0,0,1,11.375,4.81V108.5a6.556,6.556,0,0,1-1.82,4.745A6.38,6.38,0,0,1,99.06,115.13Zm43.42,0a6.445,6.445,0,0,1-6.63-6.63V71.32q0-8.19-4.03-12.155A14.37,14.37,0,0,0,121.29,55.2a14.719,14.719,0,0,0-11.18,4.68,16.718,16.718,0,0,0-4.42,11.96H97.5a31.549,31.549,0,0,1,3.38-14.885,25.31,25.31,0,0,1,9.36-10.075,25.725,25.725,0,0,1,13.65-3.64,26.111,26.111,0,0,1,13.13,3.25,22.148,22.148,0,0,1,8.9,9.555A33.574,33.574,0,0,1,149.11,71.32V108.5a6.556,6.556,0,0,1-1.82,4.745A6.38,6.38,0,0,1,142.48,115.13Zm165.23,0a6.445,6.445,0,0,1-6.63-6.63V71.32q0-8.19-4.03-12.155a15.74,15.74,0,0,0-21.645.715,16.862,16.862,0,0,0-4.355,11.96H260.26a29.712,29.712,0,0,1,3.64-14.885A25.932,25.932,0,0,1,274.1,46.88a30.444,30.444,0,0,1,15.015-3.64,26.11,26.11,0,0,1,13.13,3.25,22.148,22.148,0,0,1,8.9,9.555A33.574,33.574,0,0,1,314.34,71.32V108.5a6.556,6.556,0,0,1-1.82,4.745A6.38,6.38,0,0,1,307.71,115.13Zm-86.71,0a6.445,6.445,0,0,1-6.63-6.63V50.65a6.38,6.38,0,0,1,1.885-4.81,6.6,6.6,0,0,1,11.375,4.81V108.5a6.556,6.556,0,0,1-1.82,4.745A6.38,6.38,0,0,1,221,115.13Zm43.42,0a6.445,6.445,0,0,1-6.63-6.63V71.32q0-8.19-4.03-12.155A14.37,14.37,0,0,0,243.23,55.2a14.719,14.719,0,0,0-11.18,4.68,16.718,16.718,0,0,0-4.42,11.96h-8.19a31.549,31.549,0,0,1,3.38-14.885,25.31,25.31,0,0,1,9.36-10.075,25.725,25.725,0,0,1,13.65-3.64,26.111,26.111,0,0,1,13.13,3.25,22.148,22.148,0,0,1,8.9,9.555A33.574,33.574,0,0,1,271.05,71.32V108.5a6.556,6.556,0,0,1-1.82,4.745A6.38,6.38,0,0,1,264.42,115.13Zm101.53.39a31.3,31.3,0,0,1-17.03-4.745A33.721,33.721,0,0,1,337.025,97.9a38.319,38.319,0,0,1-4.355-18.4,36.146,36.146,0,0,1,4.745-18.46,35.1,35.1,0,0,1,12.87-12.935,35.839,35.839,0,0,1,49.27,12.935A36.146,36.146,0,0,1,404.3,79.51h-5.07a38.319,38.319,0,0,1-4.355,18.4,33.721,33.721,0,0,1-11.9,12.87A31.3,31.3,0,0,1,365.95,115.52Zm2.6-11.7a22.19,22.19,0,0,0,11.83-3.185,22.644,22.644,0,0,0,8.19-8.71,25.659,25.659,0,0,0,2.99-12.415,25.932,25.932,0,0,0-2.99-12.545,22.644,22.644,0,0,0-8.19-8.71,23.442,23.442,0,0,0-23.6,0,22.969,22.969,0,0,0-8.32,8.71A25.488,25.488,0,0,0,345.41,79.51a25.221,25.221,0,0,0,3.055,12.415,22.969,22.969,0,0,0,8.32,8.71A22.286,22.286,0,0,0,368.55,103.82Zm29.12,11.31a6.445,6.445,0,0,1-6.63-6.63V88.61l2.47-13.78,10.79,4.68V108.5a6.445,6.445,0,0,1-6.63,6.63Z" transform="translate(12056.5 1778.917)" fill="#172ac7"/>
            <path id="circle-notch-solid" d="M46.893,14.054a6.747,6.747,0,0,1-4.527,8.381,40.419,40.419,0,1,0,23.1,0A6.735,6.735,0,1,1,69.319,9.527a53.916,53.916,0,1,1-30.806,0A6.747,6.747,0,0,1,46.893,14.054Z" transform="translate(12556.771 1762.845) rotate(42)" fill="#172ac7"/>
          </g>
        </g>
      </g>
    </g>
  </g>
</svg>
